# xmcd
#
# Track frame offsets:
#   183
#   19468
#   42763
#   63495
#   83873
#   107893
#   130258
#   151253
#   170605
#   193738
#   215230
#
# Disc length: 3108 seconds
#
# Revision: 0
# Processed by: cddbd v1.5.1PL0 Copyright (c) Steve Scherf et al.
# Submitted via: CD-Datenbank 4.*
#
DISCID=9f0c220b
DTITLE=Sybil - Sybilization
DYEAR=1991
DGENRE=R and B
TTITLE0=Make It Easy On Me
TTITLE1=Open Up The Door
TTITLE2=Love´s Got A Hold On Me
TTITLE3=First Lessons In Love
TTITLE4=Go On
TTITLE5=Falling In Love
TTITLE6=Lovely Day
TTITLE7=The Let It Rain All Night Suite: A Let It Rain
TTITLE8=B. I Wanna Know What It Means
TTITLE9=C. Gentle Man
TTITLE10=Lovely Day (U.K. Remix)
EXTD=
EXTT0=
EXTT1=
EXTT2=
EXTT3=
EXTT4=
EXTT5=
EXTT6=
EXTT7=
EXTT8=
EXTT9=
EXTT10=
PLAYORDER=
